<?xml version="1.0" encoding="iso-8859-1"?>
<!-- Generator: Adobe Illustrator 19.0.0, SVG Export Plug-In . SVG Version: 6.00 Build 0)  -->
<svg version="1.1" id="Capa_1" xmlns="http://www.w3.org/2000/svg" xmlns:xlink="http://www.w3.org/1999/xlink" x="0px" y="0px"
	 viewBox="0 0 512 512" style="enable-background:new 0 0 512 512;" xml:space="preserve">
<rect x="170.667" y="59.733" style="fill:#4398D1;" width="170.667" height="392.533"/>
<rect x="102.4" y="93.867" style="fill:#3E8CC7;" width="68.267" height="358.4"/>
<g>
	<rect x="76.8" y="85.333" style="fill:#4398D1;" width="93.867" height="17.067"/>
	<rect x="145.067" y="51.2" style="fill:#4398D1;" width="221.867" height="17.067"/>
</g>
<rect x="341.333" y="93.867" style="fill:#3E8CC7;" width="68.267" height="358.4"/>
<rect x="341.333" y="85.333" style="fill:#4398D1;" width="93.867" height="17.067"/>
<g>
	<rect x="196.267" y="341.333" style="fill:#126099;" width="17.067" height="25.6"/>
	<rect x="230.4" y="341.333" style="fill:#126099;" width="17.067" height="25.6"/>
	<rect x="264.533" y="341.333" style="fill:#126099;" width="17.067" height="25.6"/>
	<rect x="298.667" y="341.333" style="fill:#126099;" width="17.067" height="25.6"/>
	<rect x="196.267" y="298.667" style="fill:#126099;" width="17.067" height="25.6"/>
	<rect x="230.4" y="298.667" style="fill:#126099;" width="17.067" height="25.6"/>
	<rect x="264.533" y="298.667" style="fill:#126099;" width="17.067" height="25.6"/>
	<rect x="298.667" y="298.667" style="fill:#126099;" width="17.067" height="25.6"/>
	<rect x="196.267" y="256" style="fill:#126099;" width="17.067" height="25.6"/>
	<rect x="230.4" y="256" style="fill:#126099;" width="17.067" height="25.6"/>
	<rect x="264.533" y="256" style="fill:#126099;" width="17.067" height="25.6"/>
	<rect x="298.667" y="256" style="fill:#126099;" width="17.067" height="25.6"/>
	<rect x="196.267" y="213.333" style="fill:#126099;" width="17.067" height="25.6"/>
	<rect x="230.4" y="213.333" style="fill:#126099;" width="17.067" height="25.6"/>
	<rect x="264.533" y="213.333" style="fill:#126099;" width="17.067" height="25.6"/>
	<rect x="298.667" y="213.333" style="fill:#126099;" width="17.067" height="25.6"/>
	<rect x="196.267" y="170.667" style="fill:#126099;" width="17.067" height="25.6"/>
	<rect x="230.4" y="170.667" style="fill:#126099;" width="17.067" height="25.6"/>
	<rect x="264.533" y="170.667" style="fill:#126099;" width="17.067" height="25.6"/>
	<rect x="298.667" y="170.667" style="fill:#126099;" width="17.067" height="25.6"/>
	<rect x="196.267" y="128" style="fill:#126099;" width="17.067" height="25.6"/>
	<rect x="230.4" y="128" style="fill:#126099;" width="17.067" height="25.6"/>
	<rect x="264.533" y="128" style="fill:#126099;" width="17.067" height="25.6"/>
	<rect x="298.667" y="128" style="fill:#126099;" width="17.067" height="25.6"/>
	<rect x="196.267" y="85.333" style="fill:#126099;" width="17.067" height="25.6"/>
	<rect x="230.4" y="85.333" style="fill:#126099;" width="17.067" height="25.6"/>
	<rect x="264.533" y="85.333" style="fill:#126099;" width="17.067" height="25.6"/>
	<rect x="298.667" y="85.333" style="fill:#126099;" width="17.067" height="25.6"/>
	<rect x="128" y="384" style="fill:#126099;" width="17.067" height="25.6"/>
	<rect x="128" y="341.333" style="fill:#126099;" width="17.067" height="25.6"/>
	<rect x="128" y="298.667" style="fill:#126099;" width="17.067" height="25.6"/>
	<rect x="128" y="256" style="fill:#126099;" width="17.067" height="25.6"/>
	<rect x="128" y="213.333" style="fill:#126099;" width="17.067" height="25.6"/>
	<rect x="128" y="170.667" style="fill:#126099;" width="17.067" height="25.6"/>
	<rect x="128" y="128" style="fill:#126099;" width="17.067" height="25.6"/>
	<rect x="366.933" y="384" style="fill:#126099;" width="17.067" height="25.6"/>
	<rect x="366.933" y="341.333" style="fill:#126099;" width="17.067" height="25.6"/>
	<rect x="366.933" y="298.667" style="fill:#126099;" width="17.067" height="25.6"/>
	<rect x="366.933" y="256" style="fill:#126099;" width="17.067" height="25.6"/>
	<rect x="366.933" y="213.333" style="fill:#126099;" width="17.067" height="25.6"/>
	<rect x="366.933" y="170.667" style="fill:#126099;" width="17.067" height="25.6"/>
	<rect x="366.933" y="128" style="fill:#126099;" width="17.067" height="25.6"/>
</g>
<rect x="34.133" y="315.733" style="fill:#75462E;" width="17.067" height="136.533"/>
<g>
	<rect x="34.133" y="273.067" style="fill:#88B337;" width="17.067" height="85.333"/>
	
		<rect x="34.127" y="273.07" transform="matrix(-0.6 0.8 -0.8 -0.6 320.8383 471.0544)" style="fill:#88B337;" width="17.058" height="85.333"/>
	
		<rect x="0.026" y="307.199" transform="matrix(-0.8001 0.5998 -0.5998 -0.8001 266.2295 542.7441)" style="fill:#88B337;" width="85.33" height="17.057"/>
</g>
<rect x="213.333" y="392.533" style="fill:#87CED9;" width="85.333" height="59.733"/>
<rect x="460.8" y="315.733" style="fill:#75462E;" width="17.067" height="136.533"/>
<g>
	<rect x="460.8" y="273.067" style="fill:#88B337;" width="17.067" height="85.333"/>
	
		<rect x="460.793" y="273.07" transform="matrix(-0.6 0.8 -0.8 -0.6 1003.5051 129.721)" style="fill:#88B337;" width="17.058" height="85.333"/>
	
		<rect x="426.634" y="307.246" transform="matrix(-0.8001 0.5998 -0.5998 -0.8001 1034.2101 286.9401)" style="fill:#88B337;" width="85.33" height="17.057"/>
</g>
<polygon style="fill:#71C4D1;" points="213.333,436.147 213.333,452.267 298.667,452.267 298.667,398.225 "/>
<rect x="247.467" y="384" style="fill:#4398D1;" width="17.067" height="68.267"/>
<rect y="443.733" style="fill:#A3603E;" width="512" height="17.067"/>
<g>
</g>
<g>
</g>
<g>
</g>
<g>
</g>
<g>
</g>
<g>
</g>
<g>
</g>
<g>
</g>
<g>
</g>
<g>
</g>
<g>
</g>
<g>
</g>
<g>
</g>
<g>
</g>
<g>
</g>
</svg>
